<svg width="380" height="420" viewBox="0 0 380 420" xmlns="http://www.w3.org/2000/svg">
    <defs>
        <linearGradient id="chefBg" x1="0%" y1="0%" x2="100%" y2="100%">
            <stop offset="0%" stop-color="#fdf9f1"></stop>
            <stop offset="100%" stop-color="#f3d8d8"></stop>
        </linearGradient>
        <linearGradient id="chefApron" x1="0%" y1="0%" x2="100%" y2="0%">
            <stop offset="0%" stop-color="#7f9c89"></stop>
            <stop offset="100%" stop-color="#96b3a2"></stop>
        </linearGradient>
    </defs>
    <rect x="10" y="10" width="360" height="400" rx="48" fill="url(#chefBg)"></rect>
    <g stroke="#2f2f2b" stroke-linecap="round" stroke-linejoin="round">
        <path d="M190 112c-32 0-54 18-54 48 0 28 18 60 54 60s54-32 54-60c0-30-22-48-54-48z" fill="#f8e9dc" stroke-width="3"></path>
        <path d="M146 160c6 6 18 8 26 2" fill="none" stroke-width="3"></path>
        <path d="M208 162c6 6 18 4 24-2" fill="none" stroke-width="3"></path>
        <path d="M176 184c9 6 27 6 36 0" fill="none" stroke-width="3"></path>
        <path d="M128 316c10-36 44-54 62-54s52 18 62 54" fill="url(#chefApron)" stroke-width="4"></path>
        <path d="M126 232c-18 20-26 50-18 90" fill="none" stroke-width="4"></path>
        <path d="M254 232c18 20 26 50 18 90" fill="none" stroke-width="4"></path>
    </g>
    <g fill="#7f9c89">
        <circle cx="168" cy="158" r="6"></circle>
        <circle cx="212" cy="158" r="6"></circle>
    </g>
    <path d="M132 144c6-20 22-32 58-32s52 8 60 30" fill="none" stroke="#2f2f2b" stroke-width="4" stroke-linecap="round"></path>
    <path d="M110 128c12-14 32-24 46-24s28 10 34 20" fill="none" stroke="#2f2f2b" stroke-width="4" stroke-linecap="round"></path>
    <path d="M230 124c6-10 18-16 30-14 20 4 30 28 12 40" fill="none" stroke="#2f2f2b" stroke-width="3" stroke-linecap="round"></path>
    <path d="M118 252c18 18 48 28 72 28s54-10 72-28" fill="none" stroke="#2f2f2b" stroke-width="4" stroke-linecap="round"></path>
    <path d="M150 308h80v32c0 24-18 44-40 44s-40-20-40-44z" fill="#f8e9dc" stroke="#2f2f2b" stroke-width="3"></path>
    <path d="M210 332c0 10-8 18-18 18s-18-8-18-18" fill="none" stroke="#2f2f2b" stroke-width="3"></path>
    <path d="M172 118c-6-14-18-26-36-30" fill="none" stroke="#2f2f2b" stroke-width="3" stroke-linecap="round"></path>
    <path d="M226 118c6-14 18-26 36-30" fill="none" stroke="#2f2f2b" stroke-width="3" stroke-linecap="round"></path>
</svg>
