<svg width="220" height="220" viewBox="0 0 220 220" xmlns="http://www.w3.org/2000/svg">
    <defs>
        <linearGradient id="bg-saffron" x1="0%" y1="0%" x2="100%" y2="100%">
            <stop offset="0%" stop-color="#f9f0e0"/>
            <stop offset="100%" stop-color="#f4ceb4"/>
        </linearGradient>
    </defs>
    <circle cx="110" cy="110" r="105" fill="url(#bg-saffron)"/>
    <path d="M66 126c0-30 34-68 68-68s64 30 64 66c0 28-24 50-56 54-40 6-76-16-76-52z" fill="#f1c07c" stroke="#7f9c89" stroke-width="5"/>
    <path d="M82 128c0-24 26-46 48-46s40 18 40 40c0 20-16 34-40 34s-48-14-48-28z" fill="#f5d39a"/>
    <path d="M90 132c26 12 50 12 72-6" fill="none" stroke="#7f9c89" stroke-width="5" stroke-linecap="round"/>
    <path d="M86 118c18-18 40-18 58 0" fill="none" stroke="#f8e7c9" stroke-width="5" stroke-linecap="round"/>
    <circle cx="146" cy="128" r="8" fill="#fce7c5"/>
    <circle cx="108" cy="142" r="6" fill="#fcead3"/>
    <circle cx="124" cy="116" r="6" fill="#fbe2b5"/>
</svg>
