<svg width="220" height="220" viewBox="0 0 220 220" xmlns="http://www.w3.org/2000/svg">
    <defs>
        <linearGradient id="bg-bun" x1="20%" y1="0%" x2="80%" y2="100%">
            <stop offset="0%" stop-color="#f7f0e4"/>
            <stop offset="100%" stop-color="#f0d7ce"/>
        </linearGradient>
    </defs>
    <circle cx="110" cy="110" r="105" fill="url(#bg-bun)"/>
    <path d="M56 120c0-35 26-62 54-70 44-12 96 26 96 74 0 34-32 58-74 58s-76-26-76-62z" fill="#f8e0c0" stroke="#7f9c89" stroke-width="5" stroke-linejoin="round"/>
    <path d="M66 124c0-28 29-46 52-52 32-8 70 18 70 50 0 22-20 38-52 38s-70-16-70-36z" fill="#f4d2a8"/>
    <path d="M74 126c40 16 88 16 124-10" fill="none" stroke="#7f9c89" stroke-width="5" stroke-linecap="round"/>
    <path d="M76 148c40 20 76 20 106 2" fill="none" stroke="#b9825c" stroke-width="5" stroke-linecap="round" stroke-dasharray="12 14"/>
    <circle cx="118" cy="108" r="8" fill="#c7d6cb"/>
    <circle cx="146" cy="132" r="6" fill="#fbe7c3"/>
    <circle cx="90" cy="134" r="6" fill="#fcead6"/>
</svg>
