<svg width="220" height="220" viewBox="0 0 220 220" xmlns="http://www.w3.org/2000/svg">
    <defs>
        <linearGradient id="bg-roll" x1="0%" y1="0%" x2="100%" y2="100%">
            <stop offset="0%" stop-color="#f8efde"/>
            <stop offset="100%" stop-color="#f4d8c6"/>
        </linearGradient>
    </defs>
    <circle cx="110" cy="110" r="105" fill="url(#bg-roll)"/>
    <circle cx="110" cy="114" r="68" fill="#f0c49b" stroke="#7f9c89" stroke-width="5"/>
    <path d="M110 66c-34 0-62 28-62 62s28 62 62 62 62-28 62-62" fill="none" stroke="#f7d8b6" stroke-width="8" stroke-linecap="round" stroke-dasharray="14 14"/>
    <path d="M110 86c22 0 40 18 40 40s-18 40-40 40-40-18-40-40" fill="none" stroke="#d89a68" stroke-width="6" stroke-linecap="round"/>
    <path d="M92 122c10-12 20-12 30-6s20 6 28-6" fill="none" stroke="#7f9c89" stroke-width="5" stroke-linecap="round"/>
    <circle cx="128" cy="110" r="8" fill="#fff5ec"/>
    <circle cx="98" cy="138" r="6" fill="#f6d5b4"/>
    <circle cx="136" cy="138" r="6" fill="#f0c59f"/>
</svg>
